<svg width="44" height="44" viewBox="0 0 44 44" fill="none" xmlns="http://www.w3.org/2000/svg">
<rect x="1" y="1" width="42" height="42" rx="21" fill="#FF7608"/>
<rect x="1" y="1" width="42" height="42" rx="21" stroke="#FFEBC9" stroke-width="2"/>
<path d="M36.6663 38.5V34.8333C36.6663 32.8884 35.8937 31.0232 34.5185 29.6479C33.1432 28.2726 31.2779 27.5 29.333 27.5H14.6663C12.7214 27.5 10.8562 28.2726 9.48089 29.6479C8.10562 31.0232 7.33301 32.8884 7.33301 34.8333V38.5M29.333 12.8333C29.333 16.8834 26.0498 20.1667 21.9997 20.1667C17.9496 20.1667 14.6663 16.8834 14.6663 12.8333C14.6663 8.78325 17.9496 5.5 21.9997 5.5C26.0498 5.5 29.333 8.78325 29.333 12.8333Z" stroke="#FFEBC9" stroke-width="2" stroke-linecap="round" stroke-linejoin="round"/>
</svg>
